<svg width="83" height="21" viewBox="0 0 83 21" fill="none" xmlns="http://www.w3.org/2000/svg">
<g opacity="0.3" clip-path="url(#clip0_216_174)">
<path fill-rule="evenodd" clip-rule="evenodd" d="M0.231413 15.7486L3.16552 13.5009C4.72383 15.5351 6.37861 16.4725 8.2225 16.4724C10.0562 16.4722 11.6654 15.5455 13.1536 13.5271L16.1284 15.7206C13.9827 18.6307 11.3129 20.1682 8.22275 20.1684C5.14277 20.1686 2.44812 18.6423 0.231413 15.7486Z" fill="white"/>
<path fill-rule="evenodd" clip-rule="evenodd" d="M8.21241 5.98005L2.99022 10.4805L0.577347 7.68073L8.22246 1.09214L15.809 7.68484L13.3847 10.4747L8.21241 5.98005Z" fill="white"/>
<path d="M36.1571 4.88945L33.2003 4.88965L33.2011 17.2099L36.158 17.2097L36.1571 4.88945Z" fill="white"/>
<path fill-rule="evenodd" clip-rule="evenodd" d="M27.2253 17.2646C25.4822 17.2648 24.0296 16.7 22.8514 15.5703C21.6731 14.4245 21.092 12.9558 21.0918 11.1643C21.0917 9.35668 21.6888 7.8718 22.8669 6.70969C24.0612 5.53141 25.5137 4.9503 27.2406 4.95018C29.371 4.95004 31.2594 5.86985 32.3569 7.30621L30.4365 9.32379C29.5164 8.33933 28.5158 7.83908 27.4345 7.83915C26.5145 7.83921 25.756 8.1459 25.1266 8.77539C24.5133 9.40488 24.2067 10.1957 24.2068 11.148C24.2069 12.0679 24.5136 12.8426 25.1269 13.472C25.7564 14.0853 26.515 14.3919 27.4188 14.3918C28.597 14.3917 29.6298 13.8752 30.4851 12.8583L32.4867 14.7788C31.938 15.5051 31.1955 16.1023 30.2755 16.5704C29.3558 17.0386 28.3389 17.2646 27.2253 17.2646Z" fill="white"/>
<path fill-rule="evenodd" clip-rule="evenodd" d="M40.5922 5.87475C40.5923 6.75933 39.8755 7.47646 38.9909 7.47651C38.1062 7.47657 37.3891 6.75955 37.389 5.87497C37.389 4.99042 38.106 4.2733 38.9907 4.27324C39.8753 4.27318 40.5922 4.9902 40.5922 5.87475ZM40.4692 8.2156L37.5124 8.2158L37.513 17.2096L40.4698 17.2094L40.4692 8.2156Z" fill="white"/>
<path fill-rule="evenodd" clip-rule="evenodd" d="M46.1854 17.2795C44.7814 17.2796 43.6515 16.8439 42.7639 15.9724C41.8922 15.1009 41.4562 13.9873 41.4561 12.6155C41.456 11.2436 41.8919 10.13 42.7794 9.25839C43.6671 8.38679 44.8129 7.95095 46.2332 7.95085C48.0894 7.95073 49.7194 8.85441 50.478 10.549L48.2024 11.7435C47.7505 10.985 47.1212 10.5977 46.298 10.5977C45.7009 10.5978 45.2166 10.7915 44.8294 11.1788C44.4581 11.5662 44.2645 12.0504 44.2645 12.6153C44.2646 13.7935 45.12 14.665 46.2661 14.6649C47.089 14.6648 47.8475 14.2129 48.1704 13.5188L50.4461 14.8744C49.6714 16.3593 48.0738 17.2794 46.1854 17.2795Z" fill="white"/>
<path fill-rule="evenodd" clip-rule="evenodd" d="M54.1449 4.88826L51.1881 4.88846L51.1889 17.2087L54.1457 17.2085L54.1455 14.0721L54.4919 13.749L57.195 17.2083L60.6347 17.2081L56.4816 11.8932L60.4263 8.21427L56.8133 8.21452L54.1453 10.7029L54.1449 4.88826Z" fill="white"/>
<path fill-rule="evenodd" clip-rule="evenodd" d="M61.1677 12.5525L61.1672 4.88779L64.2475 4.88758L64.248 12.3806C64.2481 13.7202 65.0287 14.3657 66.1577 14.3657C67.2701 14.3656 68.0672 13.6877 68.0671 12.3804L68.0666 4.88732L71.1466 4.88712L71.1471 12.5518C71.1473 16.0702 68.6773 17.3938 66.1579 17.394C63.6547 17.3941 61.1679 16.0709 61.1677 12.5525Z" fill="white"/>
<path fill-rule="evenodd" clip-rule="evenodd" d="M77.8005 17.4533C80.182 17.4531 82.1126 15.357 82.1124 12.7713C82.1122 10.1857 80.1813 8.08975 77.7999 8.08991C76.8292 8.08997 75.9335 8.43829 75.2127 9.02602L75.2127 8.2133L72.379 8.21349L72.3799 20.9033L75.2135 20.9032L75.2132 16.5175C75.9341 17.1052 76.8298 17.4534 77.8005 17.4533ZM75.213 12.7766L75.213 12.7669C75.2155 11.6124 76.1244 10.6773 77.2456 10.6772C78.3685 10.6771 79.2787 11.6148 79.2788 12.7715C79.2788 13.9282 78.3688 14.866 77.2459 14.8661C76.1247 14.8661 75.2157 13.9311 75.213 12.7766Z" fill="white"/>
</g>
<defs>
<clipPath id="clip0_216_174">
<rect width="82.3188" height="20" fill="white" transform="translate(0 1)"/>
</clipPath>
</defs>
</svg>
