<svg width="95" height="23" viewBox="0 0 95 23" fill="none" xmlns="http://www.w3.org/2000/svg">
<g opacity="0.3" clip-path="url(#clip0_216_186)">
<path d="M26.6153 5.67636L31.1923 5.67605C35.1118 5.67579 37.5902 8.20436 37.5904 12.1492C37.5907 16.094 35.1254 18.6229 31.1932 18.6232L26.6162 18.6235L26.6153 5.67636ZM31.0919 16.2588C33.5574 16.2587 34.9102 14.6781 34.91 12.162C34.9098 9.63328 33.5568 8.05291 31.0913 8.05307L29.2959 8.05319L29.2965 16.2589L31.0919 16.2588Z" fill="white"/>
<path d="M44.5318 11.7821C44.1777 11.5671 43.7099 11.466 43.2168 11.4661C42.3318 11.4661 41.6111 11.934 41.4215 12.7938L41.4219 18.6351L38.8173 18.6353L38.8167 9.20313L41.4339 9.20296L41.434 10.1259C41.8385 9.4558 42.6098 8.98794 43.5454 8.98787C43.9879 8.98784 44.3925 9.07632 44.5316 9.15217L44.5318 11.7821Z" fill="white"/>
<rect x="-23.5" y="-15.5" width="159" height="59" rx="5.5" stroke="#1B1B1B"/>
<path d="M49.7541 18.8495C47.0104 18.8497 45.1264 16.8268 45.1262 13.9314C45.126 11.0234 47.0098 8.98764 49.7534 8.98745C52.4971 8.98727 54.3685 11.0101 54.3687 13.9308C54.3689 16.8262 52.4978 18.8493 49.7541 18.8495ZM49.7536 11.2127C48.4386 11.2128 47.7307 12.3508 47.7308 13.9313C47.7309 15.4864 48.4517 16.637 49.754 16.6369C51.0563 16.6368 51.7769 15.4988 51.7768 13.931C51.7767 12.3505 51.0559 11.2127 49.7536 11.2127Z" fill="white"/>
<path d="M58.1118 22.1237L55.4945 22.1239L55.4937 9.20202L58.1109 9.20185L58.111 9.98576C58.5282 9.47998 59.4638 8.99946 60.4753 8.99939C63.2189 8.99921 64.7743 11.275 64.7744 13.9428C64.7746 16.598 63.2196 18.8613 60.4759 18.8615C59.4644 18.8615 58.5288 18.3811 58.1115 17.8754L58.1118 22.1237ZM58.1113 15.4731C58.4275 16.1306 59.1229 16.573 59.8815 16.573C61.2976 16.5729 62.1447 15.4349 62.1446 13.9303C62.1445 12.4131 61.2973 11.2752 59.8812 11.2753C59.0973 11.2753 58.4272 11.7432 58.1111 12.3754L58.1113 15.4731Z" fill="white"/>
<path d="M68.5426 18.6333L65.9001 18.6335L65.8992 4.9151L68.5417 4.91492L68.542 9.98504C68.9592 9.47926 69.8948 8.99874 70.9063 8.99867C73.65 8.99849 75.1927 11.2363 75.1929 13.9421C75.1931 16.6478 73.6507 18.8606 70.907 18.8607C69.8955 18.8608 68.9598 18.3804 68.5426 17.8747L68.5426 18.6333ZM68.5424 15.4724C68.8333 16.1298 69.5287 16.5723 70.3126 16.5723C71.7287 16.5722 72.5757 15.4342 72.5756 13.9296C72.5755 12.4124 71.7283 11.2745 70.3122 11.2746C69.5536 11.2746 68.833 11.7425 68.5422 12.3747L68.5424 15.4724Z" fill="white"/>
<path d="M80.7564 18.8727C78.0127 18.8729 76.1286 16.8501 76.1284 13.9547C76.1282 11.0466 78.012 9.01086 80.7557 9.01068C83.4994 9.01049 85.3708 11.0334 85.371 13.954C85.3712 16.8494 83.4874 18.8726 80.7564 18.8727ZM80.7559 11.236C79.4409 11.2361 78.7329 12.374 78.733 13.9545C78.7332 15.5097 79.4539 16.6602 80.7562 16.6601C82.0585 16.66 82.7791 15.522 82.779 13.9542C82.7789 12.3738 82.0582 11.2359 80.7559 11.236Z" fill="white"/>
<path d="M91.2503 13.764L94.6897 18.6442L91.7943 18.6444L89.7711 15.6859L87.723 18.6447L84.9793 18.6449L88.3802 13.8274L85.181 9.21266L88.0764 9.21247L89.8973 11.8928L91.7431 9.21222L94.4867 9.21204L91.2503 13.764Z" fill="white"/>
<path d="M6.94141 1.23978L0.126759 5.62759L4.84311 9.43302L11.6957 5.19693L6.94141 1.23978Z" fill="white"/>
<path d="M0.127264 13.1506L6.94251 17.626L11.6963 13.6682L4.84311 9.43303L0.127264 13.1506Z" fill="white"/>
<path d="M11.6963 13.6682L16.4506 17.6253L23.2399 13.1996L18.5362 9.4321L11.6963 13.6682Z" fill="white"/>
<path d="M23.2394 5.66398L16.4495 1.23915L11.6957 5.19694L18.5362 9.43212L23.2394 5.66398Z" fill="white"/>
<path d="M11.709 14.5153L6.94258 18.4731L4.89422 17.1457L4.89432 18.6376L11.7095 22.7211L18.5116 18.6367L18.5115 17.1447L16.4759 18.4725L11.709 14.5153Z" fill="white"/>
</g>
<defs>
<clipPath id="clip0_216_186">
<rect width="94.8276" height="22" fill="white" transform="translate(0 1)"/>
</clipPath>
</defs>
</svg>
