<svg width="82" height="29" viewBox="0 0 82 29" fill="none" xmlns="http://www.w3.org/2000/svg">
<g opacity="0.3" clip-path="url(#clip0_216_216)">
<path d="M28.0091 15.6153C28.0117 14.4788 27.6629 13.3693 27.0102 12.4388C26.3577 11.5083 25.4333 10.8023 24.3639 10.4176C24.4612 9.92161 24.5102 9.41731 24.5103 8.91182C24.5112 7.23864 23.9813 5.60829 22.9972 4.25517C22.013 2.90206 20.6252 1.89587 19.033 1.38127C17.4411 0.866679 15.7267 0.870186 14.1368 1.39129C12.5468 1.9124 11.163 2.92426 10.1844 4.28138C9.46233 3.7219 8.57757 3.41297 7.66415 3.40142C6.75073 3.38988 5.85845 3.67632 5.12243 4.21735C4.3864 4.75841 3.84677 5.52458 3.58524 6.39985C3.32373 7.27509 3.35458 8.21172 3.67312 9.06786C2.60121 9.45865 1.67471 10.1683 1.01819 11.1014C0.361679 12.0345 0.00666836 13.1463 0.000910749 14.2872C-0.00198709 15.4276 0.348717 16.5409 1.00474 17.4737C1.66075 18.4066 2.58983 19.1133 3.66405 19.4962C3.569 19.9921 3.52052 20.4956 3.51927 21.0004C3.51778 22.6716 4.04709 24.3002 5.03086 25.6513C6.01465 27.0022 7.40205 28.0059 8.99305 28.5176C10.5841 29.0291 12.2964 29.0223 13.8833 28.4979C15.4701 27.9736 16.8494 26.9588 17.8223 25.5999C18.5424 26.1609 19.4256 26.4716 20.3382 26.4852C21.2508 26.4988 22.1429 26.2143 22.8791 25.6751C23.6156 25.1358 24.156 24.3711 24.4183 23.4971C24.6808 22.6228 24.6512 21.6871 24.3337 20.8314C25.4061 20.4412 26.3333 19.7317 26.9901 18.7986C27.6471 17.8654 28.002 16.7533 28.0075 15.612" fill="white"/>
<path d="M11.0119 13.0148L17.1412 15.8128L23.3269 10.3947C23.4159 9.94767 23.4601 9.49285 23.4586 9.03702C23.4582 7.56132 22.9855 6.1245 22.1097 4.93679C21.2339 3.74908 20.001 2.87284 18.5913 2.43629C17.1816 1.99975 15.6693 2.02581 14.2755 2.51067C12.8817 2.99553 11.6797 3.91371 10.8454 5.13089L9.81526 10.4607L11.0119 13.0148Z" fill="black"/>
<path d="M4.66845 19.5057C4.57811 19.9598 4.53287 20.4216 4.53342 20.8846C4.53355 22.3665 5.00867 23.8093 5.88906 25.0012C6.76945 26.1932 8.00872 27.0715 9.42501 27.5074C10.8413 27.9433 12.36 27.9137 13.7583 27.423C15.1565 26.9324 16.3607 26.0063 17.1939 24.781L18.2142 19.4625L16.8515 16.858L10.6995 14.0551L4.66845 19.5057Z" fill="black"/>
<path d="M4.63027 8.89991L8.83034 9.89103L9.74979 5.11469C9.17849 4.68155 8.48227 4.44513 7.76537 4.44082C7.04846 4.43649 6.34943 4.66452 5.77297 5.09075C5.19651 5.51695 4.77362 6.11845 4.56762 6.80513C4.36162 7.49182 4.3836 8.22676 4.63027 8.89991Z" fill="black"/>
<path d="M4.2657 9.89948C3.34419 10.2105 2.54252 10.801 1.97219 11.5888C1.40185 12.3766 1.09119 13.3225 1.08343 14.295C1.08283 15.235 1.36833 16.1528 1.90198 16.9266C2.43561 17.7004 3.19212 18.2934 4.07093 18.6267L9.9636 13.2998L8.88088 10.9882L4.2657 9.89948Z" fill="black"/>
<path d="M18.2716 24.7809C18.842 25.2117 19.5365 25.4468 20.2513 25.4504C20.9661 25.4541 21.663 25.2267 22.2378 24.8018C22.8127 24.3768 23.2347 23.7773 23.4409 23.0927C23.6469 22.4083 23.626 21.6754 23.3813 21.0038L19.1845 20.0273L18.2716 24.7809Z" fill="black"/>
<path d="M19.1243 18.922L23.7443 20.001C24.6664 19.6908 25.4686 19.1006 26.0391 18.3125C26.6096 17.5246 26.9198 16.5782 26.9266 15.6054C26.9257 14.6675 26.6396 13.752 26.1065 12.9804C25.5731 12.2088 24.8179 11.6175 23.9407 11.2851L17.8983 16.5763L19.1243 18.922Z" fill="black"/>
<path d="M39.1622 20.5974L39.7222 20.5403L39.7613 21.6799C38.5152 21.8681 37.2578 21.9716 35.9976 21.9894C34.6086 21.9895 33.6241 21.5875 33.0445 20.7834C32.465 19.9792 32.1756 18.7279 32.1766 17.0295C32.1764 13.6467 33.5209 11.9546 36.2102 11.9534C37.5126 11.9533 38.4839 12.3168 39.1243 13.0439C39.7647 13.771 40.086 14.9105 40.0882 16.4624L40.0118 17.5629L33.6434 17.5633C33.6435 18.6312 33.8368 19.4224 34.2231 19.9368C34.6096 20.4512 35.2813 20.7083 36.2385 20.7083C37.198 20.7114 38.1724 20.6744 39.1622 20.5974ZM38.641 16.4104C38.6409 15.2264 38.4515 14.3902 38.0727 13.9019C37.6938 13.4135 37.0764 13.1688 36.2201 13.1678C35.3638 13.1678 34.7203 13.4251 34.2894 13.9395C33.8587 14.454 33.6367 15.2777 33.6238 16.4108L38.641 16.4104Z" fill="white"/>
<path d="M42.1072 21.9125L42.1063 9.21484L43.5535 9.21475L43.5544 21.9124L42.1072 21.9125Z" fill="white"/>
<path d="M52.6686 15.0583L52.6689 19.9258C52.669 20.4141 53.8704 20.388 53.8704 20.388L53.7972 21.6675C52.7798 21.6676 51.9381 21.7523 51.4335 21.2624C50.3407 21.7479 49.1569 21.9949 47.9612 21.987C47.0745 21.9871 46.3989 21.7359 45.9344 21.2334C45.4699 20.7309 45.2381 20.0088 45.2391 19.0667C45.2391 18.1269 45.4772 17.4351 45.9536 16.9911C46.4301 16.5472 47.1761 16.2758 48.192 16.177L51.2215 15.8886L51.2214 15.0584C51.2214 14.4073 51.0802 13.9373 50.7981 13.6487C50.6434 13.5036 50.4611 13.3912 50.2618 13.3185C50.0625 13.2458 49.8508 13.2142 49.639 13.2255L45.8362 13.2258L45.8361 11.9511L49.5428 11.9509C50.6368 11.9508 51.4312 12.202 51.9261 12.7044C52.4211 13.2069 52.6686 13.9915 52.6686 15.0583ZM46.7221 18.995C46.7222 20.179 47.2106 20.771 48.1874 20.7709C49.0686 20.7699 49.9432 20.6196 50.7741 20.3263L51.2169 20.1717L51.2167 16.9875L48.3662 17.2579C47.7867 17.31 47.3683 17.4773 47.1111 17.7594C46.8539 18.0415 46.7242 18.4534 46.7221 18.995Z" fill="white"/>
<path d="M58.3189 13.2445C56.9156 13.2446 56.214 13.733 56.2141 14.7097C56.2141 15.1612 56.377 15.4797 56.7026 15.6653C57.0281 15.8508 57.7614 16.044 58.9019 16.2447C60.048 16.4454 60.8587 16.7253 61.334 17.0845C61.8094 17.4437 62.0478 18.1187 62.0488 19.1096C62.0489 20.1014 61.7305 20.8286 61.0934 21.291C60.4564 21.7534 59.5269 21.9851 58.3048 21.9863C57.5072 21.9864 54.8439 21.6903 54.8439 21.6903L54.9219 20.4368C56.4522 20.5832 57.5575 20.6922 58.3047 20.6921C59.052 20.6921 59.6201 20.5732 60.0124 20.3355C60.4047 20.0978 60.6 19.699 60.6 19.139C60.6 18.579 60.4371 18.1997 60.0985 17.9995C59.7599 17.7992 59.0306 17.6105 57.8992 17.4298C56.7678 17.2492 55.9619 16.9855 55.4866 16.6388C55.0112 16.2921 54.7719 15.6475 54.7718 14.7082C54.7717 13.7689 55.0973 13.0803 55.7663 12.6244C56.4353 12.1685 57.2558 11.9487 58.2456 11.9486C59.0302 11.9486 61.7537 12.1486 61.7537 12.1486L61.7538 13.4103C60.3163 13.3469 59.141 13.2444 58.3189 13.2445Z" fill="white"/>
<path d="M69.0241 13.3968L65.9555 13.397L65.9558 18.0105C65.9559 19.1163 66.0362 19.843 66.1969 20.1902C66.3597 20.5386 66.7406 20.7111 67.3446 20.7111L69.062 20.5954L69.1598 21.7919C68.5094 21.9122 67.8509 21.9834 67.19 22.0053C66.1872 22.0053 65.4926 21.7607 65.1062 21.2712C64.7199 20.7817 64.5271 19.849 64.5281 18.4729L64.5278 13.3971L63.1636 13.3972L63.1635 12.1437L64.5342 12.1436L64.534 9.19058L65.9617 9.19049L65.9619 12.1435L69.024 12.1433L69.0241 13.3968Z" fill="white"/>
<path d="M71.036 10.9108L71.0359 9.23083L72.4831 9.23074L72.4832 10.9107L71.036 10.9108ZM71.0367 21.9106L71.0361 12.1432L72.4833 12.1431L72.484 21.9105L71.0367 21.9106Z" fill="white"/>
<path d="M78.7524 11.9489C79.4752 11.9797 80.195 12.0574 80.9077 12.1815L81.3701 12.2385L81.3132 13.4155C80.5568 13.3197 79.7963 13.2621 79.0341 13.2431C77.9401 13.2431 77.1973 13.5036 76.8055 14.0246C76.4137 14.5456 76.2175 15.5104 76.2164 16.9191C76.2165 18.33 76.4001 19.3109 76.7669 19.8623C77.1337 20.4136 77.8988 20.6903 79.0623 20.6924L81.3413 20.5196L81.4 21.7162C80.5128 21.8665 79.6167 21.9569 78.7172 21.9866C77.213 21.9867 76.1744 21.6004 75.6013 20.8277C75.0283 20.055 74.7417 18.7527 74.7415 16.9208C74.7414 15.0878 75.0501 13.8012 75.6676 13.061C76.285 12.3208 77.3133 11.9501 78.7524 11.9489Z" fill="white"/>
</g>
<defs>
<clipPath id="clip0_216_216">
<rect width="81.3953" height="28" fill="white" transform="translate(0 1)"/>
</clipPath>
</defs>
</svg>
