<svg width="88" height="15" viewBox="0 0 88 15" fill="none" xmlns="http://www.w3.org/2000/svg">
<g opacity="0.3">
<path d="M6.1296 4.8305L7.52264 4.83041C8.39329 4.83035 9.29877 5.00442 9.29884 6.01437C9.2989 6.88502 8.74173 7.51193 7.10491 7.51204L5.57256 7.51214L6.1296 4.8305ZM0.000890672 14.6867L4.0407 14.6864L4.87626 10.6813L7.62751 10.6812C11.1101 10.6809 13.3736 8.38226 13.3735 5.70066C13.3733 2.77528 11.806 1.41718 9.36819 1.41734L2.78608 1.41778L0.000890672 14.6867Z" fill="white"/>
<path d="M18.3538 5.97894L18.8416 9.94907L16.2993 9.94924L18.3538 5.97894ZM9.61307 14.686L13.7922 14.6857L14.802 12.8051L19.1204 12.8048L19.3295 14.6854L23.3345 14.6851L21.3137 1.41654L17.2739 1.41681L9.61307 14.686Z" fill="white"/>
<path d="M25.0407 9.80934L22.1844 1.41647L26.2939 1.4162L27.548 6.3614L30.7865 1.4159L35.5924 1.41557L29.1154 9.77424L28.1058 14.6848L24.0311 14.685L25.0407 9.80934Z" fill="white"/>
<path d="M45.3441 9.63376C45.1004 10.992 44.0559 14.997 38.5185 14.9974C34.6529 14.9977 32.8069 12.4903 32.8067 8.93808C32.8064 4.65449 35.4878 1.06723 40.0151 1.06693C42.9753 1.06673 45.6222 2.35511 45.6921 6.32527L41.8264 6.32553C41.8612 5.07179 41.2691 4.37531 40.0154 4.3754C37.7517 4.37555 36.916 6.98755 36.9161 8.86815C36.9162 9.98258 37.1949 11.6542 39.0755 11.6541C40.3641 11.654 41.0954 10.7833 41.3391 9.5992L45.3441 9.63376Z" fill="white"/>
<path d="M47.7117 1.41476L51.8212 1.41449L50.8463 6.01158L54.5727 6.01133L55.5475 1.41424L59.657 1.41396L56.8718 14.6828L52.7972 14.6831L53.8764 9.42432L50.1501 9.42457L49.036 14.6834L44.9613 14.6836L47.7117 1.41476Z" fill="white"/>
<path d="M60.7362 1.41388L71.7063 1.41314L71.01 4.82613L64.1145 4.82659L63.7664 6.46344L70.1743 6.46301L69.5128 9.63221L63.1049 9.63264L62.7567 11.2695L69.7916 11.269L69.0953 14.682L57.951 14.6828L60.7362 1.41388Z" fill="white"/>
<path d="M74.5282 7.64679L71.4631 1.41314L75.9208 1.41284L77.2096 4.86053L79.8561 1.41258L84.6969 1.41225L79.16 7.64647L82.3993 14.6811L77.8023 14.6814L76.3393 10.99L73.2401 14.6817L68.2251 14.6821L74.5282 7.64679Z" fill="white"/>
<path d="M85.2188 2.00427C85.2187 1.5167 85.567 1.13359 86.0545 1.13356C86.5073 1.13353 86.8904 1.51659 86.8904 2.00415C86.8904 2.49172 86.5422 2.87483 86.0546 2.87486C85.6019 2.87489 85.2188 2.49183 85.2188 2.00427ZM85.0446 2.00428C85.0447 2.59632 85.4974 3.0142 86.0546 3.01416C86.6119 3.01413 87.0646 2.59618 87.0645 2.00414C87.0645 1.44693 86.6117 0.994219 86.0545 0.994256C85.4973 0.994293 85.0446 1.44706 85.0446 2.00428ZM85.6715 2.59628L85.8457 2.59626L85.8456 2.1087L86.0198 2.10869L86.3332 2.63106L86.5422 2.63104L86.1939 2.10868C86.368 2.10867 86.5073 2.00418 86.5073 1.79522C86.5073 1.55144 86.368 1.44697 86.0894 1.44699L85.6715 1.44702L85.6715 2.59628ZM85.8456 1.58631L86.0894 1.5863C86.2287 1.58629 86.3332 1.6211 86.3332 1.76041C86.3332 1.93454 86.1939 1.96937 86.0197 1.96939L85.8456 1.9694L85.8456 1.58631Z" fill="white"/>
</g>
</svg>
