<svg width="61" height="26" viewBox="0 0 61 26" fill="none" xmlns="http://www.w3.org/2000/svg">
<g opacity="0.3">
<path fill-rule="evenodd" clip-rule="evenodd" d="M60.081 13.9132C60.0808 9.64084 58.0111 6.26981 54.0558 6.27008C50.0839 6.27035 47.6809 9.64167 47.6812 13.8807C47.6815 18.904 50.5188 21.4405 54.5909 21.4403C56.5769 21.4401 58.0788 20.9894 59.2136 20.3552L59.2134 17.0174C58.0786 17.5849 56.7769 17.9354 55.1247 17.9356C53.5059 17.9357 52.0706 17.3683 51.8869 15.3991L60.0478 15.3985C60.0477 15.1816 60.0811 14.3137 60.081 13.9132ZM51.8366 12.3283C51.8365 10.4425 52.988 9.658 54.0394 9.65793C55.0574 9.65786 56.1422 10.4422 56.1423 12.328L51.8366 12.3283Z" fill="white"/>
<path fill-rule="evenodd" clip-rule="evenodd" d="M41.2385 6.27091C39.603 6.27102 38.5517 7.03878 37.9676 7.57287L37.7506 6.53817L34.079 6.53842L34.0803 25.9977L38.2525 25.1129L38.2688 20.3899C38.8697 20.8238 39.7542 21.4412 41.2229 21.4411C44.2102 21.4409 46.9303 19.0376 46.9299 13.7472C46.9129 8.90738 44.1591 6.27072 41.2385 6.27091ZM40.238 17.7696C39.2533 17.7697 38.6692 17.4193 38.2686 16.9854L38.2515 10.7938C38.6854 10.3098 39.2862 9.97598 40.2374 9.97592C41.7561 9.97582 42.8076 11.678 42.8078 13.8643C42.8079 16.1006 41.7733 17.7695 40.238 17.7696Z" fill="white"/>
<path fill-rule="evenodd" clip-rule="evenodd" d="M28.3379 5.28716L32.5268 4.38568L32.5266 0.997827L28.3377 1.88262L28.3379 5.28716Z" fill="white"/>
<path d="M32.5271 6.55526L28.3381 6.55554L28.3391 21.1583L32.528 21.1581L32.5271 6.55526Z" fill="white"/>
<path fill-rule="evenodd" clip-rule="evenodd" d="M23.849 7.79077L23.5819 6.55581L19.9771 6.55605L19.978 21.1589L24.1503 21.1586L24.1496 11.262C25.1342 9.97693 26.8031 10.2105 27.3204 10.394L27.3202 6.55556C26.7861 6.35533 24.8335 5.9883 23.849 7.79077Z" fill="white"/>
<path fill-rule="evenodd" clip-rule="evenodd" d="M15.5042 2.93488L11.4322 3.80297L11.4164 17.1708C11.4165 19.6408 13.2691 21.4597 15.7391 21.4596C17.1076 21.4595 18.1089 21.2091 18.6596 20.9086L18.6594 17.5208C18.1253 17.7378 15.4885 18.5056 15.4884 16.0357L15.488 10.1111L18.6589 10.1109L18.6586 6.55616L15.4877 6.55637L15.5042 2.93488Z" fill="white"/>
<path fill-rule="evenodd" clip-rule="evenodd" d="M4.22309 10.7961C4.22304 10.1452 4.75707 9.89486 5.64159 9.8948C6.90994 9.89471 8.5121 10.2785 9.78051 10.9626L9.78024 7.04072C8.39503 6.49007 7.02652 6.27321 5.64134 6.2733C2.25349 6.27353 0.000607029 8.04271 0.000805314 10.9966C0.00111451 15.6028 6.34285 14.868 6.34299 16.854C6.34304 17.6217 5.6755 17.8721 4.74092 17.8722C3.35574 17.8723 1.58668 17.305 0.184755 16.5374L0.185022 20.5093C1.73714 21.1768 3.30591 21.4604 4.74116 21.4603C8.21246 21.46 10.5989 19.7409 10.5987 16.7536C10.5816 11.7803 4.22321 12.6653 4.22309 10.7961Z" fill="white"/>
</g>
</svg>
